<svg width="29" height="29" xmlns="http://www.w3.org/2000/svg" xmlns:xlink="http://www.w3.org/1999/xlink" xml:space="preserve" overflow="hidden"><g transform="translate(-625 -345)"><g><g><g><g><path d="M640.357 358.192C641.366 358.321 642.079 359.244 641.949 360.253 641.82 361.262 640.897 361.974 639.888 361.845 638.879 361.715 638.167 360.792 638.296 359.783 638.426 358.775 639.349 358.062 640.357 358.192Z" fill="#E41279" fill-rule="evenodd" fill-opacity="1"/><path d="M637.099 362.336C637.451 361.914 638.079 361.857 638.502 362.208L638.502 362.208C638.923 362.561 638.98 363.188 638.629 363.611L632.563 370.889C632.21 371.312 631.583 371.369 631.161 371.017 630.738 370.665 630.681 370.038 631.033 369.615Z" fill="#008DFF" fill-rule="evenodd" fill-opacity="1"/><path d="M628.001 366.528C624.45 359.846 626.989 351.55 633.671 348 640.352 344.449 648.648 346.988 652.198 353.67 655.75 360.352 653.21 368.647 646.528 372.197 643.251 373.939 639.407 374.277 635.876 373.133L636.823 370.209C642.407 372.019 648.401 368.959 650.21 363.374 652.02 357.791 648.96 351.797 643.375 349.988 637.792 348.178 631.798 351.239 629.989 356.822 629.101 359.562 629.363 362.543 630.714 365.085Z" fill="#008DFF" fill-rule="evenodd" fill-opacity="1"/><path d="M631.653 362.59C630.187 357.882 632.816 352.875 637.524 351.409 642.233 349.943 647.238 352.571 648.705 357.28 650.172 361.989 647.544 366.994 642.835 368.461 641.24 368.958 639.537 368.997 637.922 368.575L638.532 366.237C642.013 367.147 645.572 365.062 646.482 361.582 647.39 358.101 645.306 354.543 641.826 353.633 638.345 352.724 634.787 354.808 633.878 358.288 633.57 359.467 633.599 360.709 633.961 361.872Z" fill="#53B1FF" fill-rule="evenodd" fill-opacity="1"/><path d="M634.917 361.536C634.068 358.728 635.656 355.765 638.464 354.917 641.272 354.068 644.235 355.656 645.083 358.464 645.932 361.272 644.344 364.235 641.536 365.083 641.13 365.206 640.711 365.279 640.287 365.303L640.176 363.257C641.974 363.159 643.354 361.623 643.257 359.824 643.159 358.026 641.623 356.646 639.824 356.743 638.026 356.841 636.646 358.377 636.743 360.176 636.758 360.436 636.802 360.694 636.878 360.943Z" fill="#A3D5FF" fill-rule="evenodd" fill-opacity="1"/><path d="M629.406 364.11C630.292 364.169 630.963 364.935 630.904 365.821 630.845 366.706 630.079 367.377 629.193 367.319 628.308 367.26 627.638 366.494 627.695 365.608 627.754 364.722 628.52 364.051 629.406 364.11Z" fill="#008DFF" fill-rule="evenodd" fill-opacity="1"/><path d="M636.443 370.176C637.27 370.231 637.895 370.945 637.84 371.772 637.786 372.598 637.072 373.224 636.245 373.169 635.419 373.114 634.793 372.399 634.848 371.573 634.902 370.746 635.617 370.121 636.443 370.176Z" fill="#008DFF" fill-rule="evenodd" fill-opacity="1"/><path d="M633.019 361.338C633.678 361.382 634.176 361.951 634.133 362.61 634.089 363.268 633.519 363.767 632.861 363.724 632.203 363.68 631.703 363.111 631.748 362.451 631.791 361.793 632.361 361.295 633.019 361.338Z" fill="#53B1FF" fill-rule="evenodd" fill-opacity="1"/><path d="M638.502 366.236C639.158 366.28 639.655 366.847 639.612 367.503 639.568 368.16 639.001 368.656 638.344 368.612 637.689 368.569 637.191 368.002 637.235 367.346 637.279 366.69 637.846 366.193 638.502 366.236Z" fill="#53B1FF" fill-rule="evenodd" fill-opacity="1"/><path d="M636.13 360.266C636.674 360.301 637.086 360.771 637.049 361.316 637.014 361.86 636.543 362.272 636 362.235 635.455 362.199 635.044 361.729 635.08 361.186 635.115 360.641 635.586 360.23 636.13 360.266Z" fill="#A3D5FF" fill-rule="evenodd" fill-opacity="1"/><path d="M640.251 363.196C640.789 363.221 641.205 363.678 641.18 364.215 641.155 364.753 640.698 365.169 640.16 365.144 639.622 365.119 639.207 364.663 639.231 364.126 639.257 363.587 639.713 363.172 640.251 363.196Z" fill="#A3D5FF" fill-rule="evenodd" fill-opacity="1"/></g></g></g></g></g></svg>