<svg width="353" height="358" xmlns="http://www.w3.org/2000/svg" xmlns:xlink="http://www.w3.org/1999/xlink" xml:space="preserve" overflow="hidden"><g transform="translate(-2442 -352)"><g><path d="M2618.94 522.808C2624.02 523.462 2627.62 528.114 2626.96 533.199 2626.31 538.284 2621.66 541.876 2616.57 541.222 2611.49 540.568 2607.89 535.916 2608.55 530.831 2609.2 525.746 2613.85 522.154 2618.94 522.808Z" fill="#E41279" fill-rule="evenodd" fill-opacity="1"/><path d="M2629.3 357.83C2634.42 358.169 2638.29 362.591 2637.95 367.707 2637.61 372.822 2633.19 376.694 2628.08 376.355 2622.96 376.016 2619.09 371.594 2619.43 366.478 2619.77 361.363 2624.19 357.491 2629.3 357.83Z" fill="#008DFF" fill-rule="evenodd" fill-opacity="1"/><path d="M2679.73 369.281C2684.85 369.62 2688.72 374.042 2688.38 379.158 2688.04 384.273 2683.62 388.145 2678.51 387.806 2673.39 387.467 2669.52 383.045 2669.86 377.929 2670.2 372.814 2674.62 368.942 2679.73 369.281Z" fill="#008DFF" fill-rule="evenodd" fill-opacity="1"/><path d="M2724.16 395.755C2729.27 396.094 2733.14 400.516 2732.8 405.632 2732.46 410.747 2728.04 414.619 2722.93 414.28 2717.81 413.941 2713.94 409.519 2714.28 404.403 2714.62 399.288 2719.04 395.416 2724.16 395.755Z" fill="#008DFF" fill-rule="evenodd" fill-opacity="1"/><path d="M2758.22 434.661C2763.34 435 2767.21 439.422 2766.87 444.537 2766.53 449.653 2762.11 453.525 2756.99 453.186 2751.88 452.847 2748.01 448.425 2748.35 443.309 2748.69 438.194 2753.11 434.322 2758.22 434.661Z" fill="#008DFF" fill-rule="evenodd" fill-opacity="1"/><path d="M2778.6 482.189C2783.72 482.528 2787.59 486.95 2787.25 492.066 2786.91 497.181 2782.49 501.053 2777.37 500.714 2772.26 500.375 2768.38 495.953 2768.72 490.838 2769.06 485.722 2773.48 481.85 2778.6 482.189Z" fill="#008DFF" fill-rule="evenodd" fill-opacity="1"/><path d="M2783.29 533.688C2788.41 534.027 2792.28 538.449 2791.94 543.565 2791.6 548.68 2787.18 552.552 2782.06 552.213 2776.95 551.874 2773.08 547.452 2773.42 542.337 2773.75 537.221 2778.18 533.349 2783.29 533.688Z" fill="#008DFF" fill-rule="evenodd" fill-opacity="1"/><path d="M2771.84 584.117C2776.96 584.456 2780.83 588.878 2780.49 593.993 2780.15 599.109 2775.73 602.981 2770.61 602.642 2765.5 602.303 2761.63 597.881 2761.96 592.765 2762.3 587.65 2766.73 583.778 2771.84 584.117Z" fill="#008DFF" fill-rule="evenodd" fill-opacity="1"/><path d="M2745.37 628.539C2750.48 628.878 2754.35 633.3 2754.02 638.416 2753.68 643.531 2749.25 647.403 2744.14 647.064 2739.02 646.725 2735.15 642.303 2735.49 637.187 2735.83 632.072 2740.25 628.2 2745.37 628.539Z" fill="#008DFF" fill-rule="evenodd" fill-opacity="1"/><path d="M2706.46 662.606C2711.58 662.945 2715.45 667.367 2715.11 672.482 2714.77 677.598 2710.35 681.47 2705.23 681.131 2700.12 680.792 2696.25 676.37 2696.59 671.254 2696.92 666.139 2701.35 662.267 2706.46 662.606Z" fill="#008DFF" fill-rule="evenodd" fill-opacity="1"/><path d="M2658.93 682.983C2664.05 683.322 2667.92 687.744 2667.58 692.859 2667.24 697.975 2662.82 701.847 2657.71 701.508 2652.59 701.169 2648.72 696.747 2649.06 691.631 2649.4 686.516 2653.82 682.644 2658.93 682.983Z" fill="#008DFF" fill-rule="evenodd" fill-opacity="1"/><path d="M2607.43 687.676C2612.55 688.015 2616.42 692.437 2616.08 697.552 2615.74 702.668 2611.32 706.54 2606.21 706.201 2601.09 705.861 2597.22 701.439 2597.56 696.324 2597.9 691.208 2602.32 687.336 2607.43 687.676Z" fill="#008DFF" fill-rule="evenodd" fill-opacity="1"/><path d="M2557.01 676.224C2562.12 676.564 2565.99 680.986 2565.65 686.101 2565.31 691.217 2560.89 695.089 2555.78 694.749 2550.66 694.41 2546.79 689.988 2547.13 684.873 2547.47 679.757 2551.89 675.885 2557.01 676.224Z" fill="#008DFF" fill-rule="evenodd" fill-opacity="1"/><path d="M2512.58 649.75C2517.7 650.09 2521.57 654.512 2521.23 659.627 2520.89 664.743 2516.47 668.615 2511.36 668.275 2506.24 667.936 2502.37 663.514 2502.71 658.399 2503.05 653.283 2507.47 649.411 2512.58 649.75Z" fill="#008DFF" fill-rule="evenodd" fill-opacity="1"/><path d="M2478.52 610.845C2483.63 611.184 2487.5 615.606 2487.16 620.722 2486.83 625.837 2482.4 629.709 2477.29 629.37 2472.17 629.031 2468.3 624.609 2468.64 619.494 2468.98 614.378 2473.4 610.506 2478.52 610.845Z" fill="#008DFF" fill-rule="evenodd" fill-opacity="1"/><path d="M2458.14 563.317C2463.25 563.656 2467.13 568.078 2466.79 573.193 2466.45 578.309 2462.03 582.181 2456.91 581.842 2451.8 581.503 2447.92 577.081 2448.26 571.965 2448.6 566.849 2453.02 562.977 2458.14 563.317Z" fill="#008DFF" fill-rule="evenodd" fill-opacity="1"/><path d="M2453.45 511.817C2458.56 512.157 2462.43 516.578 2462.09 521.694 2461.76 526.81 2457.33 530.682 2452.22 530.342 2447.1 530.003 2443.23 525.581 2443.57 520.466 2443.91 515.35 2448.33 511.478 2453.45 511.817Z" fill="#008DFF" fill-rule="evenodd" fill-opacity="1"/><path d="M2464.9 461.389C2470.01 461.728 2473.89 466.15 2473.55 471.265 2473.21 476.381 2468.79 480.253 2463.67 479.914 2458.55 479.575 2454.68 475.153 2455.02 470.037 2455.36 464.922 2459.78 461.05 2464.9 461.389Z" fill="#008DFF" fill-rule="evenodd" fill-opacity="1"/><path d="M2491.37 416.967C2496.49 417.306 2500.36 421.728 2500.02 426.844 2499.68 431.959 2495.26 435.831 2490.14 435.492 2485.03 435.153 2481.16 430.731 2481.5 425.615 2481.83 420.5 2486.26 416.628 2491.37 416.967Z" fill="#008DFF" fill-rule="evenodd" fill-opacity="1"/><path d="M2530.28 382.9C2535.39 383.239 2539.27 387.661 2538.93 392.776 2538.59 397.892 2534.16 401.764 2529.05 401.425 2523.93 401.086 2520.06 396.664 2520.4 391.548 2520.74 386.433 2525.16 382.561 2530.28 382.9Z" fill="#008DFF" fill-rule="evenodd" fill-opacity="1"/><path d="M2577.81 362.523C2582.92 362.862 2586.79 367.284 2586.45 372.399 2586.11 377.515 2581.69 381.387 2576.58 381.048 2571.46 380.709 2567.59 376.287 2567.93 371.171 2568.27 366.055 2572.69 362.184 2577.81 362.523Z" fill="#008DFF" fill-rule="evenodd" fill-opacity="1"/><path d="M2641.23 400.44C2646.28 401.34 2649.64 406.161 2648.74 411.208 2647.84 416.255 2643.02 419.617 2637.97 418.717 2632.92 417.817 2629.56 412.996 2630.46 407.949 2631.36 402.902 2636.18 399.54 2641.23 400.44Z" fill="#53B1FF" fill-rule="evenodd" fill-opacity="1"/><path d="M2683.97 416.59C2689.02 417.49 2692.38 422.311 2691.48 427.358 2690.58 432.405 2685.76 435.767 2680.72 434.867 2675.67 433.967 2672.31 429.146 2673.21 424.099 2674.11 419.052 2678.93 415.69 2683.97 416.59Z" fill="#53B1FF" fill-rule="evenodd" fill-opacity="1"/><path d="M2718 447.09C2723.05 447.99 2726.41 452.811 2725.51 457.858 2724.61 462.905 2719.79 466.267 2714.74 465.367 2709.69 464.467 2706.33 459.646 2707.23 454.599 2708.13 449.552 2712.95 446.19 2718 447.09Z" fill="#53B1FF" fill-rule="evenodd" fill-opacity="1"/><path d="M2738.71 487.822C2743.75 488.722 2747.12 493.543 2746.22 498.59 2745.32 503.637 2740.5 506.999 2735.45 506.099 2730.4 505.199 2727.04 500.378 2727.94 495.331 2728.84 490.284 2733.66 486.922 2738.71 487.822Z" fill="#53B1FF" fill-rule="evenodd" fill-opacity="1"/><path d="M2743.3 533.283C2748.35 534.183 2751.71 539.004 2750.81 544.051 2749.91 549.098 2745.09 552.46 2740.04 551.56 2735 550.66 2731.63 545.839 2732.53 540.792 2733.43 535.745 2738.26 532.383 2743.3 533.283Z" fill="#53B1FF" fill-rule="evenodd" fill-opacity="1"/><path d="M2731.17 577.335C2736.21 578.235 2739.57 583.056 2738.67 588.103 2737.77 593.15 2732.95 596.512 2727.91 595.612 2722.86 594.712 2719.5 589.891 2720.4 584.844 2721.3 579.797 2726.12 576.435 2731.17 577.335Z" fill="#53B1FF" fill-rule="evenodd" fill-opacity="1"/><path d="M2703.93 614.028C2708.98 614.928 2712.34 619.749 2711.44 624.796 2710.54 629.843 2705.72 633.205 2700.68 632.305 2695.63 631.405 2692.27 626.584 2693.17 621.537 2694.07 616.49 2698.89 613.128 2703.93 614.028Z" fill="#53B1FF" fill-rule="evenodd" fill-opacity="1"/><path d="M2665.29 638.406C2670.33 639.306 2673.7 644.127 2672.8 649.174 2671.9 654.221 2667.08 657.583 2662.03 656.683 2656.98 655.783 2653.62 650.962 2654.52 645.915 2655.42 640.868 2660.24 637.506 2665.29 638.406Z" fill="#53B1FF" fill-rule="evenodd" fill-opacity="1"/><path d="M2620.44 647.177C2625.49 648.077 2628.85 652.898 2627.95 657.945 2627.05 662.992 2622.23 666.354 2617.19 665.454 2612.14 664.554 2608.78 659.733 2609.68 654.686 2610.58 649.639 2615.4 646.277 2620.44 647.177Z" fill="#53B1FF" fill-rule="evenodd" fill-opacity="1"/><path d="M2575.46 639.156C2580.51 640.056 2583.87 644.877 2582.97 649.924 2582.07 654.971 2577.25 658.333 2572.2 657.434 2567.15 656.534 2563.79 651.713 2564.69 646.665 2565.59 641.618 2570.41 638.256 2575.46 639.156Z" fill="#53B1FF" fill-rule="evenodd" fill-opacity="1"/><path d="M2508.57 579.194C2513.62 580.094 2516.98 584.915 2516.08 589.962 2515.18 595.01 2510.36 598.372 2505.31 597.472 2500.27 596.572 2496.9 591.751 2497.8 586.703 2498.7 581.656 2503.52 578.294 2508.57 579.194Z" fill="#53B1FF" fill-rule="evenodd" fill-opacity="1"/><path d="M2495.7 535.351C2500.75 536.251 2504.11 541.072 2503.21 546.119 2502.31 551.167 2497.49 554.529 2492.44 553.629 2487.39 552.729 2484.03 547.908 2484.93 542.86 2485.83 537.813 2490.65 534.451 2495.7 535.351Z" fill="#53B1FF" fill-rule="evenodd" fill-opacity="1"/><path d="M2499.54 489.819C2504.58 490.719 2507.95 495.54 2507.05 500.587 2506.15 505.635 2501.32 508.997 2496.28 508.097 2491.23 507.197 2487.87 502.376 2488.77 497.328 2489.67 492.281 2494.49 488.919 2499.54 489.819Z" fill="#53B1FF" fill-rule="evenodd" fill-opacity="1"/><path d="M2519.56 448.747C2524.61 449.647 2527.97 454.468 2527.07 459.516 2526.17 464.563 2521.35 467.925 2516.3 467.025 2511.25 466.125 2507.89 461.304 2508.79 456.257 2509.69 451.21 2514.51 447.848 2519.56 448.747Z" fill="#53B1FF" fill-rule="evenodd" fill-opacity="1"/><path d="M2553.07 417.683C2558.12 418.583 2561.48 423.404 2560.58 428.451 2559.68 433.499 2554.86 436.861 2549.81 435.961 2544.76 435.061 2541.4 430.24 2542.3 425.193 2543.2 420.145 2548.02 416.783 2553.07 417.683Z" fill="#53B1FF" fill-rule="evenodd" fill-opacity="1"/><path d="M2595.54 400.822C2600.59 401.722 2603.95 406.543 2603.05 411.59 2602.15 416.637 2597.33 419.999 2592.28 419.099 2587.23 418.199 2583.87 413.378 2584.77 408.331 2585.67 403.284 2590.49 399.922 2595.54 400.822Z" fill="#53B1FF" fill-rule="evenodd" fill-opacity="1"/><path d="M2644.32 441.237C2649.24 442.677 2652.07 447.834 2650.63 452.754 2649.19 457.674 2644.03 460.496 2639.11 459.056 2634.19 457.616 2631.37 452.459 2632.81 447.539 2634.25 442.619 2639.4 439.797 2644.32 441.237Z" fill="#A3D5FF" fill-rule="evenodd" fill-opacity="1"/><path d="M2673.83 456.638C2678.75 458.078 2681.57 463.235 2680.13 468.155 2678.69 473.075 2673.54 475.897 2668.61 474.457 2663.69 473.017 2660.87 467.861 2662.31 462.94 2663.75 458.02 2668.91 455.198 2673.83 456.638Z" fill="#A3D5FF" fill-rule="evenodd" fill-opacity="1"/><path d="M2695.2 482.159C2700.12 483.599 2702.94 488.755 2701.5 493.676 2700.06 498.596 2694.9 501.417 2689.98 499.977 2685.06 498.537 2682.24 493.381 2683.68 488.461 2685.12 483.54 2690.28 480.719 2695.2 482.159Z" fill="#A3D5FF" fill-rule="evenodd" fill-opacity="1"/><path d="M2705.17 513.913C2710.09 515.353 2712.91 520.509 2711.47 525.43 2710.03 530.35 2704.88 533.172 2699.95 531.731 2695.03 530.291 2692.21 525.135 2693.65 520.215 2695.09 515.294 2700.25 512.473 2705.17 513.913Z" fill="#A3D5FF" fill-rule="evenodd" fill-opacity="1"/><path d="M2702.23 547.067C2707.15 548.507 2709.97 553.663 2708.53 558.584 2707.09 563.504 2701.94 566.326 2697.02 564.886 2692.1 563.445 2689.28 558.289 2690.72 553.369 2692.16 548.449 2697.31 545.627 2702.23 547.067Z" fill="#A3D5FF" fill-rule="evenodd" fill-opacity="1"/><path d="M2686.83 576.573C2691.75 578.013 2694.57 583.169 2693.13 588.09 2691.69 593.01 2686.54 595.831 2681.62 594.391 2676.7 592.951 2673.87 587.795 2675.31 582.875 2676.75 577.954 2681.91 575.133 2686.83 576.573Z" fill="#A3D5FF" fill-rule="evenodd" fill-opacity="1"/><path d="M2661.31 597.939C2666.23 599.379 2669.05 604.536 2667.61 609.456 2666.17 614.376 2661.02 617.198 2656.1 615.758 2651.18 614.318 2648.35 609.161 2649.79 604.241 2651.23 599.321 2656.39 596.499 2661.31 597.939Z" fill="#A3D5FF" fill-rule="evenodd" fill-opacity="1"/><path d="M2629.56 607.913C2634.48 609.353 2637.3 614.509 2635.86 619.43 2634.42 624.35 2629.26 627.171 2624.34 625.731 2619.42 624.291 2616.6 619.135 2618.04 614.215 2619.48 609.294 2624.64 606.473 2629.56 607.913Z" fill="#A3D5FF" fill-rule="evenodd" fill-opacity="1"/><path d="M2596.4 604.976C2601.32 606.416 2604.14 611.572 2602.7 616.492 2601.26 621.413 2596.11 624.234 2591.19 622.794 2586.27 621.354 2583.45 616.198 2584.89 611.277 2586.33 606.357 2591.48 603.536 2596.4 604.976Z" fill="#A3D5FF" fill-rule="evenodd" fill-opacity="1"/><path d="M2545.53 564.054C2550.45 565.494 2553.27 570.65 2551.83 575.57 2550.39 580.491 2545.24 583.312 2540.31 581.872 2535.39 580.432 2532.57 575.276 2534.01 570.355 2535.45 565.435 2540.61 562.614 2545.53 564.054Z" fill="#A3D5FF" fill-rule="evenodd" fill-opacity="1"/><path d="M2535.56 532.299C2540.48 533.74 2543.3 538.896 2541.86 543.816 2540.42 548.736 2535.26 551.558 2530.34 550.118 2525.42 548.678 2522.6 543.522 2524.04 538.601 2525.48 533.681 2530.64 530.859 2535.56 532.299Z" fill="#A3D5FF" fill-rule="evenodd" fill-opacity="1"/><path d="M2538.49 499.146C2543.41 500.586 2546.24 505.742 2544.8 510.662 2543.36 515.583 2538.2 518.404 2533.28 516.964 2528.36 515.524 2525.54 510.368 2526.98 505.447 2528.42 500.527 2533.57 497.706 2538.49 499.146Z" fill="#A3D5FF" fill-rule="evenodd" fill-opacity="1"/><path d="M2553.9 469.64C2558.82 471.08 2561.64 476.236 2560.2 481.156 2558.76 486.077 2553.6 488.898 2548.68 487.458 2543.76 486.018 2540.94 480.862 2542.38 475.941 2543.82 471.021 2548.97 468.2 2553.9 469.64Z" fill="#A3D5FF" fill-rule="evenodd" fill-opacity="1"/><path d="M2579.42 448.273C2584.34 449.713 2587.16 454.87 2585.72 459.79 2584.28 464.71 2579.12 467.532 2574.2 466.092 2569.28 464.652 2566.46 459.495 2567.9 454.575 2569.34 449.655 2574.5 446.833 2579.42 448.273Z" fill="#A3D5FF" fill-rule="evenodd" fill-opacity="1"/><path d="M2611.17 438.3C2616.09 439.74 2618.91 444.896 2617.47 449.816 2616.03 454.737 2610.88 457.558 2605.95 456.118 2601.03 454.678 2598.21 449.522 2599.65 444.601 2601.09 439.681 2606.25 436.86 2611.17 438.3Z" fill="#A3D5FF" fill-rule="evenodd" fill-opacity="1"/><path d="M2588.17 555.561C2591.19 551.947 2596.56 551.459 2600.17 554.471L2600.17 554.471C2603.79 557.483 2604.27 562.854 2601.26 566.469L2539.34 640.768C2536.33 644.382 2530.96 644.871 2527.34 641.859 2523.73 638.847 2523.24 633.475 2526.25 629.861Z" fill="#008DFF" fill-rule="evenodd" fill-opacity="1"/></g></g></svg>